<?xml version="1.0" encoding="UTF-8"?>
<svg xmlns="http://www.w3.org/2000/svg" width="400px" height="400px" viewBox="0 0 100 100" preserveAspectRatio="xMidYMid" class="lds-stripe">
   <defs>
      <pattern patternUnits="userSpaceOnUse" x="0" y="0" width="20" height="100" id="stripe-pattern">
         <g transform="translate(0 0)">
            <g transform="rotate(20 50 50) scale(1.2)">
               <rect x="-20" y="-10" width="10" height="120" fill="#9AA40D" />
               <rect x="-10" y="-10" width="10" height="120" fill="#C7D229" />
               <rect x="0" y="-10" width="10" height="120" fill="#9AA40D" />
               <rect x="10" y="-10" width="10" height="120" fill="#C7D229" />
               <rect x="20" y="-10" width="10" height="120" fill="#9AA40D" />
               <rect x="30" y="-10" width="10" height="120" fill="#C7D229" />
               <rect x="40" y="-10" width="10" height="120" fill="#9AA40D" />
               <rect x="50" y="-10" width="10" height="120" fill="#C7D229" />
               <rect x="60" y="-10" width="10" height="120" fill="#9AA40D" />
               <rect x="70" y="-10" width="10" height="120" fill="#C7D229" />
               <rect x="80" y="-10" width="10" height="120" fill="#9AA40D" />
               <rect x="90" y="-10" width="10" height="120" fill="#C7D229" />
               <rect x="100" y="-10" width="10" height="120" fill="#9AA40D" />
               <rect x="110" y="-10" width="10" height="120" fill="#9AA40D" />
            </g>
            <animateTransform attributeName="transform" type="translate" values="0 0;26 0" keyTimes="0;1" dur="4.6s" repeatCount="indefinite" />
         </g>
      </pattern>
   </defs>
   <rect rx="0" ry="0" x="-350" y="49" stroke="none" stroke-width="0" width="800" height="2" fill="url(#stripe-pattern)" />
</svg>